<svg width="817" height="778" viewBox="0 0 817 778" fill="none" xmlns="http://www.w3.org/2000/svg">
<path fill-rule="evenodd" clip-rule="evenodd" d="M664.328 103.853C595.577 39.4409 503.144 0.000183105 401.5 0.000183105C328.566 0.000183105 260.374 20.3071 202.271 55.5753C202.923 56.972 203.446 58.4185 203.98 60.268C204.281 60.2139 204.575 60.1611 204.861 60.1096C209.107 59.3455 211.781 58.8643 216.374 58.5478L216.275 58.9388C270.899 27.794 334.121 10.0002 401.5 10.0002C497.806 10.0002 573.148 44.1221 639.5 103.853L662.765 108.239C663.307 106.676 663.821 105.226 664.328 103.853ZM675.347 117.85C675.553 116.924 675.757 116.052 675.962 115.221C674.012 113.235 672.042 111.269 670.05 109.325C669.512 111.097 668.992 113.005 668.439 115.139L675.304 117.834L667.148 117.281C665.647 116.825 664.117 116.391 662.543 115.973C666.783 120.096 670.926 124.318 674.968 128.636C681.758 130.451 729.483 157.824 739.031 163.699C736.535 160.674 724.454 149.926 713.373 140.067L713.369 140.063C704.476 132.151 696.228 124.813 694.095 122.5C690.721 120.903 684.113 120.006 678.032 119.18C673.703 118.592 669.642 118.041 667.206 117.299L675.347 117.85ZM97.2043 171.5C68.1655 211.636 47.5694 251.466 36.259 301.37C32.9071 305.916 30.3359 309.807 26.8086 315.454C25.6445 314.839 24.5463 314.27 23.4975 313.739C33.9118 257.756 56.4558 206.037 88.2997 161.41L88.9069 161.331C91.5862 160.98 93.3213 160.753 96.2067 160.029C96.3869 160.875 96.4528 162.689 96.5238 164.646C96.625 167.433 96.7368 170.511 97.2043 171.5ZM28.3358 352.645C28.0851 355.621 27.8692 358.607 27.6886 361.602C25.3644 360.178 15.5656 355.388 8.27952 351.827L8.27768 351.826L8.2767 351.825L8.27189 351.823C4.46683 349.963 1.34835 348.439 0.339966 347.905C0.533379 345.262 0.753494 342.627 1.00005 340C1.61574 340.314 5.4748 342.121 9.80891 344.15L9.81344 344.152L9.83529 344.162C15.6287 346.875 22.2601 349.98 23.1267 350.447L25.5195 349.923L19.4079 346.504C24.0714 335.842 39.4981 307.57 44.1759 299.704C42.9394 306.911 41.9088 314.189 41.0905 321.531C39.8834 323.688 26.9022 347.122 25.5752 349.954L23.165 350.467C24.7391 351.316 26.3606 352.211 28.0421 353.157L28.2139 352.857L28.3358 352.645ZM776 384.5C776 394.445 775.612 404.3 774.851 414.049C775.112 418.694 775.508 423.5 776.043 428.95C775.437 429.059 772.659 428.519 770.335 428.067L770.334 428.067L770.333 428.067C768.749 427.759 767.377 427.492 767.048 427.5C766.965 428.195 767.008 429.332 767.052 430.476V430.481C767.096 431.667 767.142 432.861 767.048 433.579C767.352 433.533 767.795 433.474 768.333 433.404L768.337 433.403C771.241 433.021 776.927 432.273 778.874 431.072C777.445 412.605 777.762 393.657 780.188 384.593C782.363 387.716 783.347 389.715 784.737 393.657C782.381 397.388 781.105 400.211 778.874 406C779.043 422.589 779.726 433.082 781.624 442.698C781.955 440.521 782.267 438.337 782.561 436.148L782.513 435.806C782.487 435.616 782.46 435.423 782.433 435.228C782.36 434.694 782.285 434.145 782.209 433.579C782.246 433.748 782.282 433.916 782.318 434.082L782.437 434.624C782.505 434.939 782.573 435.248 782.641 435.551C782.915 433.486 783.172 431.415 783.413 429.339C782.084 422.078 781.591 415.916 781.199 407.736C782.911 402.902 783.974 400.509 785.789 397.365C785.893 394.211 785.958 391.047 785.986 387.875C783.754 383.97 782.123 381.606 779.278 378.229C777.656 385.584 777.123 390.134 776.549 398.672C776.263 390.126 776.443 385.249 777.762 376.3C777.087 375.624 776.462 375.023 775.869 374.482C775.956 377.811 776 381.15 776 384.5ZM771.822 440.629C772.068 438.989 772.304 437.344 772.53 435.697C774.688 435.376 776.674 434.655 779.278 433.193C779.657 437.031 780.946 442.602 781.887 446.672L781.888 446.677L781.889 446.678C782.188 447.972 782.452 449.114 782.641 450C782.426 451.339 782.197 453.704 781.96 456.146L781.96 456.15C781.684 458.998 781.399 461.951 781.113 463.5C780.118 458.925 777.712 445.015 776.751 438.786C774.727 439.764 773.203 440.337 771.822 440.629ZM777.026 467.465C777.611 464.805 778.169 462.135 778.698 459.455C776.478 461.785 774.99 463.155 772.303 465.207C771.182 461.664 770.739 459.354 770.282 454.6L769.336 455.202C769.203 455.9 769.067 456.598 768.93 457.294C769.547 463.511 770.186 466.83 771.495 471.764C773.764 470.215 775.399 468.972 777.026 467.465ZM763.99 452.7C760.974 453.78 758.414 454.697 757.568 455.202C757.763 454.141 757.981 453.114 758.199 452.089L758.2 452.087C758.486 450.742 758.771 449.402 759 448C759.375 447.88 760.449 447.585 761.895 447.188L761.897 447.188L761.899 447.187C766.489 445.927 774.82 443.64 776.448 442.643L777.054 447.079C775.352 448.63 769.034 450.893 763.99 452.7ZM767.048 466.264C764.431 478.017 761.261 489.562 757.568 500.87C761.01 497.672 763.642 495.385 767.868 491.935C766.796 498.871 766.181 502.708 764.933 508.994C765.105 508.95 765.275 508.907 765.443 508.865C769.313 497.535 772.669 485.968 775.484 474.189C773.823 475.462 772.144 476.568 769.877 477.743C768.495 473.152 767.669 469.874 767.048 466.264ZM755.214 507.841C754.147 510.902 753.041 513.945 751.897 516.969C752.942 516.16 754.045 515.358 755.272 514.502C754.517 525.089 753.04 531.258 748.142 542.889C749.529 542.973 750.728 543.086 751.801 543.252C752.334 542.077 752.862 540.898 753.384 539.716C753.095 539.727 752.796 539.742 752.485 539.761C755.317 532.372 757.254 526.544 758.782 520.679L759.91 520.289C759.886 520.467 759.889 520.561 759.929 520.541C760.146 520.432 760.695 520.252 761.43 520.04C762.113 518.226 762.784 516.405 763.44 514.577C762.758 514.798 762.035 515.051 761.259 515.338C760.749 516.797 760.033 519.426 759.912 520.273L758.786 520.664C760.354 514.649 761.492 508.593 762.725 500.773C759.899 503.374 757.483 505.636 755.214 507.841ZM756.794 531.755C756.119 533.381 755.433 535.002 754.737 536.617L756.452 531.82L756.592 531.793L756.794 531.755ZM750.863 545.302C747.543 544.987 743.737 546.07 738.115 548.829C736.388 552.361 734.607 555.861 732.773 559.329C731.631 564.568 729.774 568.718 726.146 571.322C725.334 572.729 724.514 574.131 723.684 575.527C724.99 575.009 726.282 574.253 727.912 573.162C726.432 574.848 724.805 576.098 722.721 577.14C721.977 578.376 721.227 579.609 720.47 580.836C731.54 576.17 735.864 568.442 737.25 552.995C740.566 550.916 742.252 550.199 744.998 549.741C737.288 565.95 732.373 574.749 721.229 589.284L721.737 591.315C726.951 585.106 729.8 581.153 734.8 573.61C730.434 582.128 727.697 586.549 722.327 593.83C722.414 594.636 722.508 595.376 722.616 596.06C730.428 584.227 737.604 571.935 744.094 559.236C745.602 555.923 747.172 552.329 748.868 548.331C748.919 548.328 748.97 548.326 749.021 548.324C749.08 548.321 749.14 548.319 749.198 548.317C749.287 548.314 749.375 548.311 749.461 548.309C749.932 547.309 750.4 546.307 750.863 545.302ZM727.738 616.227L727.738 616.228C728.148 617.447 728.435 618.298 728.538 618.613C728.035 619.365 726.581 619.716 725.128 620.066C723.686 620.414 722.246 620.762 721.737 621.5C721.462 620.513 719.876 612.381 718.587 605.772C717.771 601.583 717.073 598.006 716.905 597.25C713.377 600.447 711.462 602.087 708.294 604.426C708.399 603.648 708.761 600.743 709.222 597.05L709.225 597.025C710.241 588.874 711.732 576.91 712 575.527C712.512 574.789 714.16 573.915 715.813 573.038C717.49 572.149 719.172 571.256 719.681 570.5C719.495 571.23 717.863 576.522 716.075 582.323L716.066 582.352L716.06 582.371C713.845 589.555 711.395 597.501 711.156 598.518L719.681 591.077C720.058 593.411 725.591 609.849 727.738 616.227ZM708.219 615.79C708.191 615.635 708.163 615.475 708.135 615.312L706.425 616.992L705.391 616.412C708.98 612.864 712.493 609.077 717.076 603.927L716.232 600.396C711.023 605.846 708.103 608.555 702.896 612.248C702.989 610.88 704.571 602.305 705.846 595.393L705.848 595.378L705.856 595.338C706.664 590.955 707.347 587.252 707.444 586.5C706.547 587.721 705.118 589.857 703.619 592.098L703.613 592.106C701.705 594.958 699.683 597.979 698.5 599.5C698.074 601.463 697.301 607.843 696.561 613.948L696.561 613.95C695.941 619.065 695.345 623.986 694.996 625.954C699.023 622.463 702.223 619.542 705.363 616.44L706.409 617.008C706.436 617.437 706.467 617.847 706.501 618.239L704.223 620.014C702.09 622.023 700.173 624.173 698.252 626.326L698.239 626.34C695.807 629.065 693.37 631.797 690.487 634.259C691.184 628.678 691.723 625.089 692.692 620.014C624.034 704.798 519.097 759 401.5 759C233.975 759 95.3576 637.21 47.5 485.5C47.0072 486.19 45.7742 489.546 44.4799 493.069C43.0419 496.983 41.5283 501.103 40.87 502C36.802 496.559 34.0419 492.66 31.0935 488.011C73.8841 641.458 209.464 756.214 373.555 768L366 769.043C366.965 769.187 367.781 769.313 368.551 769.432C370.275 769.699 371.769 769.93 374.183 770.243C372.083 770.964 371.266 771.401 370.194 772.214C374.005 772.644 376.231 772.863 380.422 773.2C379.523 774.023 379.09 774.5 378.377 775.364C382.297 775.256 384.49 775.163 388.401 774.957C389.192 775.735 390.004 776.176 392.185 776.971C396.16 776.745 398.35 776.542 401.753 776.226L402.721 776.136C404.85 776.894 406.159 777.3 408.653 778C411.117 777.296 412.383 776.901 414.484 776.2C417.852 776.697 419.861 776.893 423.69 777.079C425.909 776.298 427.001 775.834 428.599 774.957L438.726 775.386C438.333 774.526 437.962 774.052 436.987 773.221C440.904 773.039 443.077 772.861 446.909 772.407C445.508 771.492 444.645 771.019 443.022 770.221C446.491 769.811 448.187 769.551 451 769.064C448.137 768.558 446.491 768.287 443.431 767.843C445.239 767.085 446.09 766.636 447.42 765.807C447.417 765.807 447.414 765.806 447.411 765.806C553.807 751.174 655.479 687.904 717.076 610L707.296 617.619L707.444 617.425C707.632 617.18 707.819 616.934 708.005 616.688C708.108 616.553 708.21 616.418 708.312 616.283C708.281 616.123 708.25 615.959 708.219 615.79ZM443.299 766.347C443.409 766.284 443.521 766.219 443.635 766.15C440.558 765.757 438.628 765.565 434.327 765.336L433.779 765.657H432.64C433.626 765.041 434.406 764.354 435.248 763.471C428.45 763.687 424.641 763.888 417.859 764.5L418.677 765.079C422.788 764.791 425.227 764.701 429.418 764.65C429.21 765.255 428.886 765.734 428.042 766.253H427.032L427.474 766.021C420.114 765.937 416.137 766.135 409.472 767.179C406.664 766.623 404.979 766.342 401.698 765.914C400.056 766.732 399.517 767.237 398.936 768.186C398.647 767.236 398.829 766.694 400.164 765.7C396.394 765.286 394.19 765.125 390.14 764.929C390.19 765.39 390.303 765.741 390.623 766.12H388.639C388.23 765.732 388.002 765.311 387.787 764.714C393.301 764.665 396.849 764.97 403.641 765.85C406.173 764.891 407.802 764.446 411.108 763.836L409.369 763.386C406.595 763.976 405.28 764.343 403.335 765.057C403.014 765.019 402.698 764.982 402.387 764.946C402.023 764.904 401.665 764.863 401.312 764.823L402.312 764.779C404.28 763.898 405.644 763.487 408.449 762.871C412.889 763.945 414.554 764.626 415.813 766.021C420.871 765.762 423.522 765.706 427.883 765.786C428.14 765.558 428.198 765.427 428.19 765.186C424.086 765.16 421.892 765.23 418.166 765.486C417.117 764.614 416.025 763.942 414.553 763.289L415.368 763.191C415.432 763.209 415.481 763.218 415.507 763.214C416.075 763.125 420.926 762.632 422.667 762.507C423.736 762.941 424.218 763.19 424.712 763.664L426.349 763.536C425.678 762.855 425.034 762.481 423.587 761.821C419.842 762.013 417.619 762.204 414.177 762.636C414.428 762.805 415.06 763.1 415.362 763.189L414.549 763.287C413.039 762.616 411.128 761.965 408.449 761.136C404.609 762.369 402.648 763.091 399.755 764.479L402.289 764.776L401.296 764.821C397.38 764.379 394.171 764.083 390.549 763.852L393.924 763.9C394.586 763.278 395.164 762.94 396.584 762.357C398.908 762.51 400.026 762.632 401.903 762.871L402.823 762.614C400.075 762.144 398.325 761.962 394.947 761.736C392.771 762.436 392.043 762.868 391.06 763.664L393.907 763.899L390.525 763.851C387.972 763.688 385.212 763.557 381.854 763.429C382.635 764.317 383.346 764.965 384.366 765.613H383.282L382.877 765.293L374.183 765.871L378.172 767.843L374.592 767.821C372.639 767.013 371.899 766.502 370.807 765.571C374.187 765.166 376.193 764.983 380.013 764.757C379.205 763.98 378.878 763.523 378.479 762.679L388.708 763.064C390.066 762.242 391.015 761.782 393.31 760.964C396.993 761.186 399.088 761.365 402.823 761.779C404.91 761.078 406.19 760.688 408.756 760C411.151 760.734 412.456 761.141 414.381 761.821C418.238 761.429 420.527 761.238 424.917 760.964C426.869 761.743 427.767 762.19 428.702 763.021C432.643 762.84 434.885 762.772 438.93 762.7L436.782 764.821C441.12 765.139 443.447 765.355 447.411 765.806C446.041 765.995 444.67 766.175 443.299 766.347ZM440.139 766.729C441.193 766.607 442.246 766.479 443.299 766.347C442.295 766.919 441.4 767.271 439.339 767.8L438.112 767.629C439.096 767.32 439.632 767.097 440.139 766.729ZM433.178 767.468C435.5 767.245 437.821 766.999 440.139 766.729C440.248 766.651 440.355 766.565 440.465 766.471C437.951 766.21 436.413 766.087 433.304 765.936L433.776 765.659H432.637C431.407 766.428 429.858 767.089 427.474 767.886C427.607 767.903 427.738 767.919 427.866 767.935C426.98 768.007 426.093 768.074 425.207 768.138C424.792 768.084 424.356 768.029 423.894 767.971C425.967 767.272 427.234 766.747 428.035 766.257H427.024L426.86 766.343C423.813 766.284 422.109 766.313 419.087 766.514C419.732 767.248 420.182 767.874 420.447 768.448C419.255 768.517 418.062 768.58 416.869 768.636C416.853 768.097 416.651 767.526 416.325 766.857C414.105 767.047 412.951 767.207 411.006 767.586C412.664 768.007 413.872 768.386 414.609 768.735C413.402 768.784 412.194 768.826 410.987 768.861C410.544 768.582 409.713 768.287 408.653 767.971C406.851 768.307 405.784 768.551 404.316 768.988C403.377 768.996 402.439 769 401.5 769C401.43 769 401.359 769 401.289 769C403.547 768.357 404.838 768.043 407.221 767.629C405.816 767.19 404.819 766.968 402.619 766.621C401.308 767.159 400.605 768.01 400.456 768.999C399.266 768.996 398.077 768.987 396.89 768.973C396.717 768.098 396.93 767.181 397.504 765.957L393.31 765.636C392.951 766.268 393.141 766.677 394.333 767.521C388.95 767.78 385.684 768.023 382.465 768.537C380.773 768.455 379.083 768.361 377.397 768.257C381.81 767.715 385.797 767.4 391.776 767.093C391.235 766.716 390.874 766.414 390.63 766.129H388.649C388.936 766.398 389.312 766.654 389.833 766.943L387.173 767.093C385.983 766.539 385.094 766.075 384.366 765.613L383.286 765.614L377.661 766.064C378.645 766.666 379.374 766.991 381.138 767.543L378.274 767.864L374.694 767.843L373.555 768C374.834 768.092 376.115 768.178 377.397 768.257C375.483 768.492 373.489 768.769 371.217 769.107C375.346 769.694 378.241 770.074 381.481 770.412L379.283 770.413L378.07 770.286C375.683 770.867 374.886 771.232 373.876 771.914C377.217 772.323 379.234 772.511 383.184 772.75L384.105 772.15C381.079 771.966 379.431 771.845 376.638 771.571C377.418 771.117 377.963 770.864 379.297 770.414H381.5C383.105 770.582 384.796 770.74 386.764 770.907L388.11 770.909C385.178 772.086 383.767 773.038 382.161 774.636C389.26 774.394 393.121 774.198 399.448 773.564L398.834 773.071C394.32 773.375 391.997 773.431 387.992 773.457C388.146 773.144 388.31 772.864 388.535 772.6H389.346C389.299 772.68 389.293 772.758 389.321 772.857C392.656 772.902 394.719 772.877 399.141 772.643C400.679 773.738 402.09 774.504 403.915 775.254L402.626 775.255C402.252 775.134 402.007 775.029 401.698 774.871C399.11 775.173 397.588 775.331 394.64 775.579C393.505 775.185 393.057 774.928 392.594 774.4L391.06 774.507C391.741 775.326 392.38 775.71 393.822 776.307C397.743 776.013 399.791 775.819 403.13 775.407C402.938 775.352 402.776 775.303 402.633 775.257H403.923C405.224 775.792 406.735 776.318 408.653 776.95C410.549 776.396 411.985 775.941 413.279 775.471H414.484C417.213 775.948 418.985 776.13 422.258 776.414C424.365 775.677 425.211 775.238 426.247 774.421L423.383 774.229C422.539 774.865 421.923 775.204 420.519 775.771C418.285 775.601 417.117 775.481 415.2 775.214L414.49 775.469L413.291 775.467C414.77 774.93 416.065 774.374 417.655 773.629L415.2 773.329C413.199 774.137 411.91 774.556 409.063 775.193C404.511 774.103 402.943 773.405 401.698 772.021C397.18 772.3 394.502 772.337 389.628 772.321C389.489 772.43 389.397 772.514 389.347 772.597H388.537C389.217 771.8 390.46 771.14 393.72 770.114C389.694 769.62 387.575 769.283 384.689 768.639C388.74 768.814 392.808 768.925 396.89 768.973C397.053 769.796 397.557 770.581 398.425 771.55C395.546 771.607 393.934 771.601 391.06 771.486L390.037 772.064C394.647 772.098 397.154 772.066 401.289 771.786C400.615 770.83 400.325 769.862 400.456 768.999C400.733 769 401.011 769 401.289 769C401.544 771.741 402.946 772.984 407.835 774.636L408.756 774.443C406.776 773.583 405.878 773.062 404.664 772.064C406.325 772.908 407.419 773.37 410.085 774.143C411.774 773.746 412.685 773.485 414.279 772.986C422.08 773.969 426.708 774.321 435.35 774.636C434.659 773.86 434.003 773.273 433.162 772.686H434.744L434.839 772.729C438.307 772.577 440.207 772.478 443.022 772.129C442.135 771.358 441.301 770.942 439.339 770.221L436.475 770.5C438.241 771.084 439.003 771.413 439.851 772C438.025 772.215 436.708 772.305 434.225 772.45L434.739 772.683H433.159C432.415 772.164 431.526 771.644 430.338 770.993L427.883 771.121C429.033 772.02 429.449 772.523 429.52 773.414C422.482 773.277 419.101 772.994 413.768 772.236L409.779 773.414C405.228 771.581 404.296 770.692 403.641 769.193C403.877 769.12 404.101 769.052 404.316 768.988C406.54 768.968 408.763 768.926 410.987 768.861C411.868 769.416 411.206 769.901 407.733 770.329C406.555 770.033 406.114 769.724 405.687 769.343L404.869 769.557C405.145 770.089 405.395 770.376 406.199 770.843C409.23 770.629 410.541 770.447 412.438 770.05C411.625 770.444 409.918 770.746 406.608 771.121L407.221 771.486C414.647 770.611 416.896 769.817 414.609 768.735C415.363 768.705 416.116 768.672 416.869 768.636C416.9 769.702 416.2 770.644 414.279 771.979L415.711 772.15C417.35 771.267 417.975 770.73 418.78 769.729C419.01 770.792 418.71 771.369 417.45 772.364C420.624 772.869 422.636 773.057 426.86 773.136C426.913 772.41 426.701 771.961 425.735 771.057C434.723 770.513 439.309 770.094 446.193 769.021C441.196 768.303 437.988 767.91 433.178 767.468ZM384.689 768.639C384.282 768.622 383.875 768.604 383.468 768.585C383.652 768.559 383.86 768.534 384.105 768.507C384.303 768.553 384.498 768.597 384.689 768.639ZM383.468 768.585C382.937 768.658 382.603 768.732 382.161 768.85C384.88 769.476 386.627 769.76 390.037 770.179C389.329 770.434 388.693 770.675 388.115 770.907L386.771 770.904L387.992 770.371C384.306 769.968 382.407 769.696 379.4 769.107C380.459 768.885 381.459 768.698 382.465 768.537C382.799 768.554 383.133 768.569 383.468 768.585ZM433.178 767.468C432.086 767.573 430.995 767.672 429.902 767.766C429.744 767.749 429.583 767.732 429.418 767.714L430.645 767.243C431.543 767.32 432.383 767.395 433.178 767.468ZM429.902 767.766C429.224 767.825 428.545 767.881 427.866 767.935C431.409 768.388 433.174 768.687 435.657 769.257L433.304 769.557C430.642 768.934 428.703 768.592 425.207 768.138C423.621 768.253 422.034 768.356 420.447 768.448C421.054 769.76 420.696 770.8 419.496 772.236C421.115 772.486 422.169 772.595 424.303 772.729C424.525 771.875 424.192 771.407 423.076 770.586C430.614 770.188 433.999 769.858 438.112 769.021C435.407 768.446 433.538 768.159 429.902 767.766ZM41.7038 488.758C39.0534 479.595 36.7435 470.288 34.7887 460.85C29.012 452.607 26.3368 445.12 24.0951 433.247C22.7331 433.647 21.4404 434.004 20.1982 434.321C21.2649 442.566 22.5929 450.73 24.1734 458.802C25.8132 462.906 27.5343 466.682 29.443 470.423L26.6381 470.43L26.6444 470.457H29.4607C32.5987 476.603 36.2444 482.659 40.87 489.925C41.1521 489.532 41.43 489.143 41.7038 488.758ZM22.1309 321.531C21.878 323.067 21.6341 324.606 21.3994 326.147C22.3957 326.703 23.4324 327.318 24.5884 328.022L26.8086 325.064C25.1293 323.695 23.6044 322.538 22.1309 321.531ZM20.3947 360.55C19.5017 360.082 18.6452 359.642 17.8173 359.227C17.2752 367.582 17 376.009 17 384.5C17 400.42 17.9675 416.115 19.8471 431.527C20.8922 431.232 21.9749 430.902 23.1083 430.536C19.6208 406.94 20.3947 382.729 26.3153 371.147C26.6232 371.378 26.9213 371.605 27.2104 371.827C27.2843 369.606 27.3775 367.389 27.4899 365.177C26.4331 364.484 25.3094 363.769 24.0951 363.014C20.1361 372.413 18.8363 378.226 17.4344 389.136C16.7358 378.216 17.1753 371.985 20.3947 360.55ZM27.1002 393.249C27.5701 413.75 29.6876 433.845 33.3254 453.405C25.98 438.623 23.6128 424.357 23.1083 398.5C24.5759 396.507 25.8741 394.789 27.1002 393.249ZM26.9648 471.848C26.909 471.608 26.8533 471.367 26.7979 471.126C27.0268 471.459 27.2753 471.808 27.5487 472.182C27.3993 472.27 27.2509 472.357 27.1035 472.443C27.0571 472.245 27.0109 472.047 26.9648 471.848ZM704.223 607.263C704.416 606.22 704.615 605.199 704.822 604.196C705.656 603.047 706.483 601.893 707.304 600.734C706.828 602.417 706.356 604.189 705.85 606.171L704.223 607.263ZM747.914 527.053C749.633 525.757 751.385 524.606 753.441 523.383L753.863 519.003C752.45 519.964 751.219 520.836 750.07 521.703C749.365 523.493 748.646 525.277 747.914 527.053ZM782.728 334.113C778.677 303.163 770.945 273.371 759.987 245.191L758.975 245.007C757.95 247.69 755.978 249.209 754.126 250.636C752.623 251.794 751.199 252.891 750.423 254.5C759.354 279.214 769.148 307.85 772.714 334.669C775.374 336.279 777.322 337.915 780.39 341.007C781.26 338.349 781.987 336.187 782.728 334.113ZM764.104 237.933C765.346 240.377 766.619 242.883 767.5 245.007C764.841 244.242 758.469 240.636 752.863 237.462C749.075 235.318 745.636 233.372 743.928 232.633C742.439 229.282 740.903 225.957 739.32 222.658C740.638 223.177 743.091 224.41 745.938 225.841L745.939 225.842L745.94 225.843C751.429 228.602 758.382 232.097 761.5 232.633C762.223 234.23 763.153 236.062 764.102 237.929L764.104 237.933ZM199.27 57.4161C198.579 57.8439 197.89 58.2739 197.203 58.706C198.138 60.263 198.636 61.3998 199.146 63.3038L201.129 62.6966C200.591 60.5742 200.068 59.0824 199.27 57.4161ZM185.361 66.4542C186.359 65.775 187.36 65.1004 188.364 64.4305C189.429 66.6597 190.333 69.0563 191.213 71.9049C193.424 71.3133 195.191 70.9324 197.002 70.7119C195.499 71.6929 194.005 72.6843 192.518 73.6862C191.264 73.8782 189.906 74.126 188.362 74.4347C187.602 71.1528 186.72 68.7081 185.361 66.4542ZM189.714 75.5933C186.913 76.4503 184.085 77.8187 180.677 79.899C177.912 77.7679 176.046 76.4911 173.309 75.0034C172.035 75.9439 170.768 76.8921 169.506 77.8479C168.77 79.8795 168.35 81.8599 167.911 84.6549C167.854 83.9319 167.59 81.8351 167.271 79.3039L167.27 79.3027L167.27 79.3017C166.639 74.2961 165.793 67.5931 165.917 66.4542C165.522 66.7572 164.119 66.6051 162.715 66.4529C161.306 66.3 159.895 66.147 159.5 66.4542C159.31 69.35 161.647 77.5758 163.563 84.3191C164.707 88.3467 165.701 91.8455 165.917 93.364C167.176 92.3438 168.442 91.3316 169.715 90.3275C169.727 84.8844 170.58 80.1344 172.373 77.268C175.04 78.9065 176.247 79.9555 177.951 82.024C175.063 83.9817 173.498 85.4624 170.762 88.5002C170.77 88.8327 170.779 89.1605 170.788 89.4837C176.945 84.6621 183.257 80.0291 189.714 75.5933ZM201.154 68.039C204.047 66.2036 206.967 64.4067 209.914 62.6491C202.876 63.5855 198.371 64.6027 190.841 67.2502L191.833 69.9823C195.484 68.9864 198.046 68.3849 201.154 68.039ZM152.933 118.487C153.624 117.752 154.287 117.048 155.5 116C155.855 115.236 156.438 112.535 157.148 109.251C158.421 103.359 160.1 95.5887 161.59 93.7621C159.558 92.7903 150.061 85.3034 143.593 80.2046C140.576 77.8269 138.218 75.968 137.584 75.5321C137.244 75.8171 136.037 76.5454 134.821 77.2791C133.578 78.0287 132.325 78.7841 131.98 79.0777C133.325 79.9242 155.251 93.1671 157.128 94.0657C156.269 95.2738 155.498 96.4094 154.799 97.5037L153.169 97.4921L154.649 94.9764C153.109 94.3192 151.826 93.7118 150.658 93.0841C149.697 93.9115 148.741 94.7437 147.789 95.5804C149.437 96.2258 151.184 96.8496 153.161 97.5061L154.792 97.5146C153.574 99.4191 152.785 105.953 152.092 111.695C151.605 115.727 151.165 119.368 150.658 120.743C151.698 119.8 152.327 119.132 152.933 118.487ZM118.593 90.6642L118.595 90.6623C119.686 89.7517 120.749 88.8651 121.147 88.5002C122.271 88.9273 126.624 91.2952 131.639 94.0227C139.082 98.0711 147.981 102.912 149.939 103.375L148.823 106.209C144.827 105.267 118.77 94.4367 115.744 93.0841C116.175 92.6821 117.399 91.6609 118.589 90.6672L118.592 90.6648L118.593 90.6642ZM137.174 105.264C134.368 107.922 131.601 110.621 128.876 113.361C128.904 113.48 128.933 113.6 128.962 113.722L129.553 113.592C132.402 112.964 134.195 112.569 137.276 112.309L135.53 120.706L133.675 129.688C135.001 128.352 136.659 126.37 138.353 124.345C140.346 121.963 142.39 119.52 144 118C144.135 117.481 144.364 115.77 144.613 113.909L144.613 113.907L144.613 113.905L144.613 113.903L144.614 113.9L144.614 113.899C144.918 111.628 145.25 109.14 145.477 108.334C142.071 107.267 139.736 106.358 137.174 105.264ZM679.443 133.501C682.662 137.064 685.813 140.688 688.895 144.373C689.308 142.566 689.805 140.645 690.395 138.55C686.212 136.358 682.829 134.783 679.443 133.501ZM694.095 141.014C693.095 143.39 692.264 145.536 691.559 147.593C692.74 149.038 693.911 150.492 695.072 151.955C695.458 150.952 695.872 150.014 696.315 149.147C701.623 153.137 704.026 155.691 707.417 160.729C706.177 161.756 705.061 162.73 704.017 163.699C705.088 165.164 706.148 166.636 707.198 168.116C708.303 167.005 709.498 165.891 710.87 164.672C715.583 171.354 715.121 184.653 713.661 189.953C715.827 193.33 717.941 196.745 720 200.195C723.193 196.14 727.744 184.586 727.154 179.98C720.414 169.271 713.161 158.918 705.429 148.955C702.093 146.232 698.764 143.916 694.095 141.014ZM730.521 205.478C729.498 203.603 728.46 201.737 727.406 199.881C728.703 194.466 732.481 178.048 732.996 173.223C734.359 175.46 735.701 177.713 737.019 179.98C736.016 185.144 732.054 200.835 730.521 205.478ZM733.244 210.567C734.702 213.34 736.125 216.135 737.515 218.949C741.614 221.441 745.443 222.815 750.82 223.604C750.102 222.048 749.374 220.498 748.636 218.954L748.624 219.183L748.614 219.379C743.466 217.846 740.926 216.591 737.019 213.711C737.866 208.88 738.54 204.439 739.031 200.195C737.855 198.044 736.658 195.906 735.442 193.781C735.317 199.631 734.654 204.523 733.244 210.567ZM750.423 248.199C749.037 244.653 747.599 241.134 746.109 237.643C746.203 237.312 746.298 236.974 746.394 236.629L753.301 238.847C752.341 242.46 751.448 245.43 750.423 248.199ZM773.524 341.199C773.732 343.009 773.928 344.824 774.11 346.642L774.224 346.214C776.521 347.594 777.626 348.687 779.48 350.843L780.39 348.529C777.935 344.705 776.285 342.997 773.524 341.199ZM775.788 371.774C775.714 369.544 775.62 367.319 775.506 365.1C776.587 366.089 777.702 367.179 778.881 368.393L779.862 367.983L777.358 365.307C779.586 355.576 790.076 319.469 792.5 312C792.691 313.739 793.392 317.241 794.118 320.875L794.119 320.877L794.12 320.887C794.961 325.092 795.837 329.472 796 331.5C795.685 332.178 795.113 333.376 794.365 334.941C790.348 343.354 781.27 362.362 779.885 368.007L778.897 368.409C779.542 369.073 780.206 369.774 780.895 370.514C781.848 367.327 795.067 344.972 804.78 328.547L804.78 328.546L804.782 328.543L804.785 328.538L804.795 328.521L804.803 328.507L804.804 328.506C810.135 319.49 814.405 312.268 815 311C815.066 312.004 815.383 314.278 815.71 316.617L815.71 316.62C816.072 319.212 816.445 321.883 816.5 323C815.941 324.219 811.218 331.215 805.396 339.839L805.395 339.84L805.393 339.842L805.391 339.846C795.409 354.631 782.2 374.197 781.199 377.65C779.144 375.225 777.39 373.285 775.788 371.774ZM784.166 422.297C784.353 420.376 784.527 418.451 784.686 416.522C783.923 414.286 783.567 411.903 783.22 409.086L782.412 411.014C782.685 415.804 782.931 418.385 783.726 422.586C783.877 422.489 784.023 422.393 784.166 422.297ZM133.675 122.737L133.535 122.701L133.433 122.984L133.675 122.737ZM132.163 123.948H132.496L132.488 123.956H132.161C132.101 124.133 132.041 124.308 131.98 124.482C130.22 126.305 128.479 128.147 126.756 130.006C127.491 128.632 128.025 127.429 128.42 126.276H127.599L127.466 126.608C124.989 126.38 123.604 126.493 121.147 127.273C121.684 130.189 122.055 132.665 122.268 134.935C121.259 136.064 120.257 137.198 119.261 138.339C119.462 135.37 119.289 132.394 118.903 128.604C117.098 129.342 116.161 129.96 114.58 131.43C117.267 134.689 118.5 137.294 118.142 139.626C116.425 141.612 114.728 143.616 113.051 145.638C112.57 145.944 112.054 146.251 111.504 146.561L111.005 145.148C113.696 143.691 115.083 142.518 115.744 140.991C114.202 142.53 113.136 143.237 110.672 144.067C110.019 142.256 109.816 141.143 109.592 139.079L110.257 138.247C110.603 139.725 110.962 140.925 111.919 142.072C116.159 139.577 115.245 136.585 112.668 132.927C110.988 134.421 110.094 135.447 108.594 137.665C108.959 141.664 109.432 144.544 110.894 148.265C110.52 148.724 110.147 149.184 109.775 149.645C109.662 149.376 109.545 149.097 109.425 148.806C109.51 149.14 109.594 149.46 109.676 149.769C109.265 150.279 108.856 150.79 108.448 151.301C107.306 147.672 106.841 143.583 106.698 137.642C108.947 134.959 111.231 132.308 113.552 129.688C118.838 125.78 122.064 125.039 127.964 125.361L127.605 126.259H128.426C129.112 124.248 129.376 122.221 129.544 119.874C126.143 120.074 104.333 125.162 101 126.276C101.608 125.627 102.38 124.624 103.16 123.611C103.995 122.526 104.839 121.429 105.5 120.743C108.629 119.658 130.434 116.052 134.283 115.468C133.599 118.893 132.964 121.556 132.163 123.948ZM107.817 152.096C107.514 151.058 107.257 149.925 107.014 148.639C103.342 149.719 101.166 149.862 97.2043 149.803C97.0909 150.225 97.0161 150.551 96.9761 150.872H96.3177C96.3287 150.81 96.34 150.749 96.3514 150.687C96.364 150.62 97.4537 140.819 97.2043 143C96.3837 144.068 95.265 143.022 94.1519 141.981C93.0397 140.941 91.9332 139.906 91.1354 140.991C91.0695 141.284 91.1025 145.537 91.1357 149.814V149.816C91.1692 154.128 91.2028 158.462 91.1354 158.782C96.9052 157.842 100.043 157.082 105.185 154.625L104.687 152.713C101.018 153.89 99.1295 154.11 95.8741 154.209C95.9999 152.995 96.1327 151.91 96.3156 150.884H96.9747C96.9371 151.192 96.9316 151.498 96.9549 151.882C99.6656 152.056 101.342 151.96 104.936 151.05C105.294 152.267 105.643 153.378 105.995 154.414C106.599 153.639 107.206 152.866 107.817 152.096ZM99.6152 157.867C99.8984 159.412 100.175 160.358 100.689 161.384C100.309 161.896 99.9295 162.41 99.5515 162.924C99.0547 161.628 98.7183 160.293 98.3682 158.283L99.6152 157.867ZM99.3136 146.727C101.1 147.009 102.349 146.999 104.354 146.81C103.995 144.894 103.712 143.163 103.504 141.503C104.324 140.498 105.149 139.498 105.98 138.501C105.979 141.426 106.219 144.592 106.682 147.725C103.365 148.798 101.337 148.933 97.6836 148.811C98.2246 148.114 98.7679 147.42 99.3136 146.727ZM118.487 125.361C118.426 125.039 118.364 124.727 118.3 124.423C118.922 123.747 119.545 123.073 120.171 122.402C120.248 122.69 120.324 122.983 120.399 123.283C123.427 122.291 125.21 122.02 128.546 122.119C128.553 123.053 128.505 123.565 128.297 124.447C124.753 124.136 122.598 124.354 118.487 125.361ZM126.265 116.012L127.05 115.718L127.022 115.584L126.999 115.474C126.986 115.415 126.974 115.357 126.962 115.3C126.824 115.44 126.686 115.581 126.548 115.722L126.265 116.012Z" fill="#9A814E"/>
</svg>
