<svg width="550" height="540" viewBox="0 0 550 540" fill="none" xmlns="http://www.w3.org/2000/svg">
<path d="M28.4857 235.188H38.0765C38.9692 235.188 39.8021 235.599 40.4299 236.234C44.7356 240.587 49.0055 239.224 55.395 236.565C56.6331 236.05 58.0342 236.476 58.2326 237.803C58.2749 238.086 58.306 238.383 58.3259 238.688M28.4857 235.188C31.5513 224.695 23.2824 228.093 11.6081 237.017C8.50875 239.386 5.87419 242.366 4.2175 245.898C-0.309439 255.548 -0.077253 263.163 5.0271 274.941C6.24067 277.741 8.33967 280.095 11.0514 281.495C19.6959 285.96 25.3641 285.765 34.4857 284.688M28.4857 235.188C26.2009 244.305 24.0174 249.45 18.4861 258.688M53.4857 243.188C56.0792 247.045 57.6789 244.775 58.1814 241.688M58.1814 241.688C61.0608 242.694 62.7525 243.216 62.9857 245.688C64.5917 245.463 65.2272 245.712 65.9857 246.688C69.3815 246.923 70.9239 247.668 72.2841 249.581C72.7775 250.275 72.949 251.142 72.7259 251.964C71.2044 257.569 63.8067 270.728 55.9857 271.188M58.1814 241.688C58.34 240.713 58.3892 239.658 58.3259 238.688M66.4857 264.188L76.4857 278.188C75.9816 279.15 75.4839 280.07 74.9861 280.949C69.0031 291.512 62.9951 296.168 45.4857 297.188M45.4857 297.188C47.5043 285.997 45.8799 282.477 34.4857 284.688M45.4857 297.188C43.9558 297.353 42.6313 297.392 41.4861 297.294M34.4857 284.688C34.5782 293.065 35.9001 296.814 41.4861 297.294M51.4861 273.688C40.9861 288.688 23.9861 274.188 43.4861 268.688M41.9861 271.188C38.3297 272.479 36.4938 274.042 39.4857 277.188M58.3259 238.688C60.2205 237.041 61.6673 236.091 63.4861 235.296M66.4857 234.188C65.3363 234.562 64.3675 234.91 63.4861 235.296M63.4861 235.296C64.6242 222.953 67.2571 216.924 76.4857 208.188M76.4857 208.188C76.8537 194.718 77.4574 187.243 79.9861 174.188C76.5437 165.505 82.4861 143.688 87.9861 108.688M76.4857 208.188C82.1458 207.695 85.953 208.932 90.9861 215.792M95.9861 223.688C100.743 237.448 106.567 244.88 121.986 257.688M95.9861 223.688C98.1393 217.049 98.4581 212.693 97.9861 204.188C100.538 194.849 100.924 189.85 100.486 181.188C105.036 176.375 103.602 152.072 101.986 111.688C105.252 107.772 106.752 104.332 107.986 93.6878C109.22 83.0431 112.986 81.6878 109.986 79.6878C107.986 78.6878 107.486 85.6878 104.986 89.6878C104.256 86.766 104.859 79.042 105.237 75.0904C105.387 73.5295 105.293 71.3093 103.735 71.1379C103.246 71.0842 102.697 71.2875 101.986 71.6878M95.9861 223.688C94.1497 220.467 92.5116 217.871 90.9861 215.792M121.986 257.688C123.073 274.947 133.486 284.688 151.986 281.688C155.153 281.623 156.592 281.767 156.986 283.188L155.895 288.188M121.986 257.688C124.486 236.188 145.188 211.197 161.486 225.188C161.527 225.355 161.566 225.522 161.604 225.688M101.986 71.6878L99.9861 86.6878M101.986 71.6878C100.427 67.7872 99.3994 67.8151 96.9861 70.6878M96.9861 70.6878C93.4861 65.1878 91.4767 70.7121 89.4861 85.1878L87.8767 92.8324C87.711 93.6194 86.7249 93.9091 86.1499 93.3468C83.1265 90.3905 75.8412 83.7252 73.4861 85.6878C71.9861 87.6878 80.4861 96.6878 80.4861 96.6878C84.5384 101.591 81.8855 101.653 87.9861 108.688M96.9861 70.6878L94.9861 85.1878M87.9861 108.688C91.5626 110.097 93.114 109.081 95.9861 107.688M90.9861 215.792C93.3636 208.151 94.0824 200.946 94.9861 186.188M41.4861 297.294C40.3779 303.66 39.7726 307.593 39.8985 314.024C39.933 315.783 39.6695 317.536 39.1691 319.224C37.3393 325.393 37.8992 328.083 40.7539 329.725C41.9833 330.432 42.861 331.698 42.7191 333.109C42.1287 338.981 42.4132 342.079 46.4861 342.688C46.7431 345.738 47.0546 347.289 47.9861 349.688M47.9861 349.688C46.1271 360.869 45.6919 367.237 45.4861 378.688C39.3499 384.555 46.4861 412.688 43.9861 447.688C43.0725 451.246 35.4281 452.932 15.9861 455.688C12.2481 457.058 10.2942 458.328 6.98608 461.188C5.40601 462.79 5.65069 463.38 6.98608 464.188C18.1885 461.821 22.8129 461.385 29.9861 461.188C35.1034 460.905 36.9741 460.679 38.9861 460.188C37.2492 462.313 37.3839 462.897 38.9861 463.188C41.9024 463.354 43.4053 463.044 45.9861 462.188C49.2187 460.663 51.4076 459.791 53.4402 459.195C55.9591 458.457 57.7836 456.163 57.5225 453.552L57.4861 453.188C59.0443 440.223 61.1713 429.159 66.085 397.94C66.5804 394.792 66.7117 391.584 66.6026 388.399C66.4587 384.199 66.5329 380.924 66.8299 376.188C67.9524 369.328 68.546 365.253 69.3104 358.709C69.4285 357.697 69.6195 356.693 69.8731 355.707C71.5524 349.176 72.1766 345.247 72.9861 338.688M47.9861 349.688C59.4586 347.65 65.0403 345.387 72.9861 338.688M72.9861 338.688C77.3353 337.915 79.4385 338.066 82.9861 338.688C93.3316 344.862 98.4414 348.53 105.486 355.688C110.085 357.309 112.793 358.122 119.486 358.188C131.059 365.838 137.638 368.325 149.486 370.188M149.486 370.188C149.232 362.459 149.624 358.82 150.986 353.188C148.879 350.439 148.167 349.079 146.986 346.688C147.821 332.356 148.592 324.435 150.986 310.688L155.895 288.188M149.486 370.188C150.897 372.742 152.534 374.534 154.486 375.746M154.486 252.688C161.29 239.352 163.26 233.059 161.604 225.688M161.604 225.688C169.419 227.742 175.434 228.679 175.986 231.688C176.958 233.309 179.502 233.507 182.986 233.309M185.486 238.688C184.486 243.188 187.241 244.027 188.986 242.188C189.671 240.993 190.157 239.956 190.486 238.929M190.486 238.929C190.911 237.601 191.073 236.29 191.065 234.677C191.059 233.576 190.098 232.742 189 232.828C186.805 233.001 184.772 233.207 182.986 233.309M190.486 238.929C192.963 240.259 194.533 240.823 195.486 243.688C196.48 244.716 197.091 245.506 197.369 246.433C197.785 247.817 198.068 249.285 198.938 250.439C203.176 256.061 201.743 260.024 194.486 264.741M184.486 270.188C188.566 268.203 191.897 266.424 194.486 264.741M179.486 273.688C172.96 279.984 167.588 281.969 163.894 277.067C162.816 275.635 162.621 273.708 163.248 272.029C164.283 269.257 165.644 268.58 167.986 268.188M168.986 270.188C166.922 270.494 165.93 271.014 164.986 273.688M155.895 288.188C160.765 313.058 181.106 312.766 200.807 288.188C201.702 287.071 202.595 285.905 203.486 284.688C201.307 277.519 199.437 273.198 194.486 264.741M182.986 233.309C184.592 218.926 186.089 211.301 193.486 201.188M193.486 201.188C201.736 198.645 206.579 200.889 215.486 209.688M193.486 201.188C195.708 191.87 197.311 185.979 200.456 177.783C201.749 174.414 202.353 170.813 202.221 167.206C201.51 147.67 203.681 134.154 209.486 110.688L211.986 86.6878V56.6878C211.986 53.6879 214.177 53.6498 214.986 56.6878M215.486 209.688C217.859 227.675 218.954 238.054 225.986 250.188L244.986 270.688L274.486 297.188L290.986 302.688M215.486 209.688C221.217 175.309 222.985 170.064 224.93 165.603C225.625 164.008 225.988 162.291 225.976 160.551C225.807 134.346 223.502 116.837 223.986 91.1879C227.809 84.1838 227.755 76.8369 226.986 62.6879C226.792 55.3058 227.292 48.4898 225.486 48.1878C225.486 32.6879 213.486 32.1878 214.986 56.6878M290.986 302.688C287.363 316.59 286.76 324.954 288.986 341.188M290.986 302.688L295.986 289.688M288.986 341.188C288.358 349.723 288.546 354.305 290.986 361.688C288.645 365.188 291.459 369.914 298.486 379.688M288.986 341.188C279.693 348.25 276.602 353.665 274.486 365.688C280.281 383.226 274.501 388.62 262.986 396.355M298.486 379.688C311.734 387.306 317.915 385.38 328.486 379.688M298.486 379.688C298.38 389.373 298.494 396.518 299.71 410.43M300.432 418.188C300.603 419.925 300.787 421.755 300.986 423.688C295.594 430.949 295.296 436.801 296.986 448.688V517.688C296.072 521.246 287.928 527.432 268.486 530.188C264.748 531.558 262.794 532.828 259.486 535.688C257.906 537.29 258.151 537.88 259.486 538.688C266.486 541.688 275.813 537.885 282.986 537.688C288.103 537.405 289.474 535.179 291.486 534.688C289.749 536.813 289.884 538.397 291.486 538.688C294.402 538.854 297.951 537.544 300.532 536.688C303.765 535.163 305.953 534.291 307.986 533.695C310.505 532.957 310.284 530.663 310.022 528.052L309.986 527.688C316.217 498.675 319.727 482.334 325.986 453.188C329.986 443.188 331.004 437.732 326.486 427.188C326.786 424.537 327.044 422.053 327.265 419.688M300.432 418.188L265.986 411.688C254.877 410.458 247.232 408.883 228.986 403.188C213.846 391.663 203.202 385.712 177.486 376.688M300.432 418.188C300.156 415.374 299.917 412.804 299.71 410.43M177.486 376.688C181.481 367.451 184.194 362.661 193.986 358.188C223.773 367.887 240.722 372.931 260.986 397.688C261.67 397.235 262.337 396.791 262.986 396.355M177.486 376.688C166.686 378.14 159.532 378.878 154.486 375.746M177.486 376.688C178.542 386.675 178.545 392.388 177.986 402.688C179.86 411.793 179.828 416 176.986 421.188C177.977 428.708 171.986 448.188 169.486 479.688L168.606 485.957C168.551 486.352 168.555 486.753 168.546 487.152C168.497 489.509 166.764 491.514 164.44 492.195C162.408 492.791 160.219 493.663 156.986 495.188C154.405 496.044 152.902 496.354 149.986 496.188C148.384 495.897 148.249 495.313 149.986 493.188C147.974 493.679 146.103 493.905 140.986 494.188C133.813 494.385 129.189 494.821 117.986 497.188C116.651 496.38 116.406 495.79 117.986 494.188C121.294 491.328 123.248 490.058 126.986 488.688C145.154 486.112 153.02 484.471 154.718 481.364C154.95 480.94 154.976 480.438 154.958 479.954C153.515 442.5 152.001 414.91 153.986 408.688C158.056 401.903 156.424 391.957 154.486 375.746M214.986 56.6878C214.986 56.6878 216.486 60.1879 217.486 65.1879M223.986 79.6879C223.12 85.0512 222.046 87.4073 217.486 88.6879M295.986 289.688C257.986 282.366 251.486 248.688 272.986 225.688C285.486 213.188 300.239 207.958 307.986 215.188M295.986 289.688C309.486 323.688 349.986 300.688 354.486 284.688C352.128 281.908 351.135 280.375 349.986 277.688C351.27 271.707 350.177 268.603 347.344 263.188M295.986 289.688C299.646 290.516 301.607 290.479 304.986 289.688M307.986 215.188C315.54 222.904 310.678 231.013 307.986 245.688C309.537 250.384 316.684 251.375 321.986 254.188M307.986 215.188C314.21 216.488 318.847 217.457 321.986 218.917M334.486 231.688C333.247 235.074 335.166 236.306 336.998 235.957C337.668 235.829 338.132 235.262 338.391 234.631C338.92 233.343 339.358 232.206 339.706 231.188M339.706 231.188C340.393 229.179 340.731 227.632 340.738 226.303C340.749 224.238 338.74 222.946 336.677 222.852C334.162 222.738 331.564 222.834 326.486 223.188C325.754 221.296 324.265 219.977 321.986 218.917M339.706 231.188C342.023 232.885 343.172 233.942 343.986 236.688C346.092 237.707 347.176 238.374 347.986 240.688C350.231 241.529 351.765 242.366 352.894 243.799C355.046 246.529 354.276 250.431 352.818 253.587C351.021 257.476 349.339 260.581 347.344 263.188M338.486 270.688C342.302 268.559 345.033 266.207 347.344 263.188M332.986 272.188C334.519 273.978 334.577 275.044 331.486 277.188C319.986 286.688 307.986 277.188 319.986 268.188M321.986 218.917C326.376 204.047 329.997 196.284 337.986 183.188M337.986 183.188C353.419 176.068 358.612 180.467 366.486 191.688M337.986 183.188C342.572 170.23 345.461 162.934 352.986 149.688C351.741 140.857 352.028 136.096 352.986 127.688C359.986 95.1879 366.986 90.1879 372.986 53.6879L375.486 46.6879C375.276 42.5831 375.007 39.4937 374.511 35.1317C374.188 32.2819 375.025 29.4555 376.608 27.0636C377.919 25.0816 378.742 23.4101 379.486 21.1879L380.425 12.2675C380.463 11.9093 380.692 11.568 381.052 11.5619C382.69 11.5344 384.217 14.3515 385.149 16.6879M366.486 191.688L368.986 223.688C375.986 241.688 383.486 234.188 402.486 261.688C420.446 280.538 430.705 289.943 449.986 300.688M366.486 191.688C372.657 175.686 374.862 165.717 378.486 147.688L383.486 137.188C389.776 107.675 385.766 84.7167 390.483 58.3464C390.795 56.5988 391.581 54.9735 392.718 53.6096V53.6096C393.225 53.0012 393.606 52.2981 393.839 51.5411L395.486 46.1879C397.986 31.6879 404.486 17.6879 400.486 14.6879M449.986 300.688C453.102 330.124 451.511 345.458 435.486 368.188C432.48 385.221 428.758 392.849 415.486 400.188C415.316 400.392 415.149 400.584 414.986 400.766M449.986 300.688C453.873 306.277 456.769 309.45 463.137 312.21C465.576 313.267 467.636 315.012 469.163 317.188C470.955 319.74 473.004 321.695 476.986 324.188C496.515 343.337 506.927 354.841 524.486 376.688C525.446 382.21 529.986 388.688 529.986 388.688L530.486 389.188C532.811 396.234 534.967 399.983 542.986 405.688C543.268 409.93 543.946 411.982 547.486 414.188M328.486 379.688C328.597 395.591 328.592 405.506 327.265 419.688M328.486 379.688L328.596 379.193L329.041 377.19M383.986 27.6879L385.986 19.1879C385.846 18.6269 385.554 17.7027 385.149 16.6879M400.486 14.6879L396.986 24.6879M400.486 14.6879C401.5 10.1513 401.587 8.09164 398.986 7.18787M398.986 7.18787C397.246 12.3051 396.104 14.9893 393.986 19.6879M398.986 7.18787C399.491 4.67841 399.464 3.59903 397.986 3.18787M397.986 3.18787L389.986 17.6879M397.986 3.18787C397.984 1.97569 397.899 1.2315 397.298 1.04587C396.461 0.787292 395.672 1.52653 395.091 2.1826C391.051 6.74625 388.822 10.3342 385.149 16.6879M367.486 179.688C370.046 174.438 371.305 170.981 372.986 163.188M327.265 419.688C347.721 429.896 359.204 435.809 378.986 436.688C390.427 440.03 396.005 439.334 405.986 438.188M405.986 438.188L429.986 436.688L440.486 437.188C442.43 435.754 443.199 433.811 443.986 428.188M405.986 438.188C406.735 434.596 406.861 432.307 405.986 427.188M443.986 428.188C435.464 425.631 426.661 427.282 417.986 425.478M443.986 428.188C448.111 428.11 449.284 426.743 449.986 422.688M417.986 425.478C416.482 425.165 414.981 424.749 413.486 424.188L414.986 410.688M417.986 425.478C413.686 426.597 411.124 427.047 405.986 427.188M405.986 427.188C402.571 425.608 399.423 424.126 396.445 422.688L362.486 398.688C351.923 388.169 343.799 384.143 329.041 377.19M329.041 377.19L329.486 375.188C336.784 368.603 340.083 367.942 345.986 366.688C359.262 367.337 366.59 368.611 379.486 372.188C385.473 379.303 389.942 383.856 396.108 387.688M414.986 410.688C407.52 405.711 402.393 401.16 396.108 387.688M414.986 410.688L429.486 410.188M396.108 387.688C398.939 389.447 402.128 391.055 405.986 392.688C408.606 402.272 410.386 405.889 414.986 400.766M429.486 410.188L414.986 400.766M429.486 410.188C436.149 415.992 440.391 418.898 449.986 422.688M449.986 422.688C461.925 428.603 468.264 432.322 478.486 440.188C505.037 456.612 520.23 463.672 549.486 461.188M262.986 396.355L299.71 410.43" stroke="#9A814E" stroke-opacity="0.7" stroke-linecap="round"/>
</svg>
